# xmcd
# 
# Track frame offsets:
#   300
#   19130
#   34767
# 
# Disc length: 704 seconds
# 
# Revision: 3
# Processed by: cddbd v1.5.2PL0 Copyright (c) Steve Scherf et al.
# Submitted via: Synapstar 1.0 
# 
DISCID=1d02bc03
DTITLE=Various Artist - Random Karaoke Mix
DYEAR=1900
DGENRE=Country
TTITLE0=Jason Aldean - The Truth
TTITLE1=Rosanne Cash - Seven Year Ache
TTITLE2=Carrie Underwood - Cowboy Casanova
EXTD=CD 2 Single MediaType: Karaoke CD+G Producer: Unknown
EXTT0=
EXTT1=
EXTT2=
PLAYORDER=
